<svg width="32" height="38" viewBox="0 0 32 38" fill="none" xmlns="http://www.w3.org/2000/svg">
<g clip-path="url(#clip0_2337_13071)">
<path d="M31.7793 33.8054V33.841C31.7052 33.952 31.6475 34.0335 31.5467 34.1239C31.4786 34.1846 31.3068 34.3401 31.2283 34.2705L18.5335 20.8618C18.298 20.8781 18.0773 20.8396 17.8507 20.7655C17.045 20.5063 15.9652 19.1822 15.3565 18.5379C14.0457 17.153 12.7971 15.6956 11.4685 14.33C11.4344 14.2944 11.4226 14.2633 11.3633 14.2766V20.1182L16.5917 34.6674C17.1368 36.5011 15.1195 38.0133 13.5021 36.9395C13.0103 36.6122 12.843 36.1974 12.6401 35.6716C10.9693 31.3497 9.60966 26.8959 7.95375 22.568C7.93301 22.5132 7.90487 22.3903 7.8471 22.374L5.06701 36.621C4.91742 37.0832 4.47604 37.5853 4.03614 37.7911C3.82434 37.8904 3.59477 37.9304 3.3726 37.997C3.23485 37.9867 3.08081 38.0118 2.94603 37.997C1.91072 37.8785 1.10202 36.9602 1.09905 35.922L4.10872 20.4633L4.19166 19.0933C3.65994 18.8919 3.1445 18.6534 2.67202 18.332C1.23384 17.3574 -0.470949 15.2675 0.185193 13.4131C0.648789 12.1038 3.066 9.97247 4.17241 9.05564C5.08331 8.30323 5.60319 7.79224 6.83993 7.63968C8.1774 7.47527 10.1947 7.4338 11.1856 8.50318C13.4917 11.5558 15.6927 14.6973 18.1099 17.664C18.6164 18.2861 19.4266 18.9496 19.4251 19.8309C19.4251 19.9923 19.2859 20.256 19.3481 20.3641C22.2748 23.4967 25.2356 26.6012 28.1387 29.7545C29.368 31.089 30.5944 32.4294 31.7778 33.8024L31.7793 33.8054ZM4.54417 12.8548C4.01985 12.9866 3.4511 13.2858 3.03638 13.6368C2.21583 14.3314 2.1788 14.8632 2.7757 15.7415C3.18005 16.3354 3.75621 16.8405 4.27905 17.3278L4.54566 12.8533L4.54417 12.8548Z" fill="black"/>
<path d="M7.94634 0.0814809C10.4243 -0.158463 12.2816 2.15951 11.4255 4.51896C10.5694 6.87841 7.42202 7.38496 5.82536 5.48466C4.22869 3.58437 5.37065 0.330312 7.94634 0.0814809Z" fill="black"/>
</g>
<defs>
<clipPath id="clip0_2337_13071">
<rect width="31.7792" height="38" fill="white"/>
</clipPath>
</defs>
</svg>
