<svg width="28" height="33" viewBox="0 0 28 33" fill="none" xmlns="http://www.w3.org/2000/svg">
<path d="M6.07898 13.4674C6.07898 11.5915 6.4556 9.79249 7.13951 8.19812M9.576 4.58377C11.3117 2.87708 13.492 1.96252 15.7328 2.00118C17.9736 2.03983 20.1312 3.02923 21.8256 4.79509C23.5199 6.56095 24.6424 8.99001 24.9953 11.6544C25.3481 14.3188 24.9087 17.0477 23.7544 19.3604C23.4848 19.793 23.1976 20.2093 22.8938 20.6077M20.1133 23.8161C19.3471 24.931 18.7397 26.191 18.3158 27.545C17.8939 28.505 17.3009 29.3407 16.5793 29.9924C15.8576 30.6441 15.0252 31.0956 14.1417 31.3146C13.2581 31.5336 12.3453 31.5147 11.4685 31.2592C10.5918 31.0037 9.77278 30.5179 9.07021 29.8367" stroke="black" stroke-width="2.63158" stroke-linecap="round" stroke-linejoin="round"/>
<path d="M13.4482 9.23421C14.23 8.65058 15.1526 8.40218 16.0664 8.52936C16.9801 8.65654 17.8313 9.15182 18.4818 9.93479C19.1323 10.7178 19.5439 11.7425 19.6498 12.8425C19.7556 13.9426 19.5495 15.0535 19.065 15.9947M2 2.00879L26.4737 31.4736" stroke="black" stroke-width="2.63158" stroke-linecap="round" stroke-linejoin="round"/>
</svg>
