<svg width="20" height="38" viewBox="0 0 20 38" fill="none" xmlns="http://www.w3.org/2000/svg">
<g id="Property 1=&#234;&#179;&#160;&#235;&#160;&#185;&#236;&#158;&#144;" clip-path="url(#clip0_2337_6459)">
<path id="Vector" d="M9.33644 0.0123114C11.4625 0.202741 12.8734 2.28211 12.3173 4.25399C11.5197 7.07972 7.53458 7.57422 6.01236 5.04642C4.76027 2.97012 6.15219 0.233456 8.64366 0.0123114C8.82798 -0.00304586 9.15213 -0.00304586 9.33644 0.0123114Z" fill="black"/>
<path id="Vector_2" d="M1.45844 15.4955C-0.530927 15.1699 -0.413345 12.2919 1.65865 12.1445H7.90957C8.58964 10.6794 9.31421 9.21742 10.2422 7.88748C10.9032 6.94147 12.0853 5.35046 13.401 5.44875C15.5016 5.60539 17.0937 7.22404 17.9422 8.95941C19.404 11.951 19.4803 16.2326 19.2229 19.5006C19.0513 21.6875 18.6954 23.8406 18.1297 25.9568C18.0248 28.8348 18.2695 31.8049 18.1297 34.6705C18.1043 35.208 17.9994 35.7548 17.9454 36.2923C17.8532 37.1983 16.7282 37.9908 15.8098 37.9355C15.2156 37.8986 14.294 37.2628 14.0525 36.7438C13.9603 36.5441 13.9984 36.28 13.865 36.0803C13.6234 32.1765 13.8141 28.2236 13.7537 24.3013C12.9656 21.0917 12.3809 17.7407 11.4021 14.5832C11.3417 14.3897 11.2623 14.0519 11.1733 13.8891C11.1383 13.8246 11.1129 13.7662 11.0303 13.797C10.9604 13.8215 10.6871 14.4358 10.6108 14.5587C10.3216 15.0225 9.73687 15.5354 9.13942 15.5354H3.86729V37.0509C3.7211 37.0601 3.55585 37.0356 3.40967 37.0509C2.81858 37.1093 2.50714 37.0847 1.91606 37.0509C1.76352 37.0417 1.61098 37.0601 1.45844 37.0509V15.4955Z" fill="black"/>
</g>
<defs>
<clipPath id="clip0_2337_6459">
<rect width="19.4043" height="38" fill="white"/>
</clipPath>
</defs>
</svg>
