<svg width="18" height="38" viewBox="0 0 18 38" fill="none" xmlns="http://www.w3.org/2000/svg">
<g clip-path="url(#clip0_2337_13130)">
<path d="M9.2766 0.014467C11.7521 0.279695 12.7406 3.54763 10.8165 5.19687C8.7381 6.97792 5.57304 5.20491 5.97651 2.51083C6.16137 1.28113 7.25121 0.149492 8.50663 0.014467C8.69309 -0.00482233 9.09013 -0.00482233 9.2766 0.014467Z" fill="black"/>
<path d="M13.3579 20.4323L14.4349 29.3504C14.4558 29.7185 14.3384 30.2891 13.906 30.3614C13.1377 30.49 12.0671 30.2891 11.2602 30.3711C10.9242 30.4048 10.6847 30.5865 10.6236 30.9289C10.5175 32.7421 10.7683 34.7224 10.6252 36.518C10.4822 38.3135 7.6161 38.4469 7.32997 36.6144C7.19173 34.8012 7.45535 32.8385 7.3139 31.0446C7.28014 30.617 7.11779 30.4081 6.67896 30.3711C4.8304 30.2119 2.69892 30.5543 0.864828 30.3711C-0.0192665 30.2843 0.0482462 29.5722 0.118974 28.8938C0.573881 24.5409 1.44672 20.159 1.93378 15.8012C2.43691 13.8257 3.94309 12.2359 5.88809 11.6299C6.26102 11.5141 6.97151 11.4579 7.21424 11.1846C7.28818 11.101 7.33801 10.9853 7.37177 10.8792C7.93598 9.12388 7.45214 6.95543 9.83919 6.60662C10.7844 6.46838 11.5029 6.79951 12.2021 7.39105C13.6521 8.61753 15.2595 10.0465 16.629 11.3598C17.2511 11.9562 17.7334 12.5075 17.4279 13.4318C16.7078 15.6067 15.5681 17.7751 14.8271 19.9581C14.803 20.1011 14.4092 20.4323 14.2999 20.4323H13.3563H13.3579ZM12.4642 11.8115C12.1796 11.8405 11.9482 12.0446 11.8983 12.3259L11.9128 17.3122C12.1459 17.9793 12.9705 17.9166 13.1827 17.272C13.4045 16.1725 13.7887 15.057 13.9928 13.9607C14.0652 13.5717 14.0941 13.3064 13.89 12.9464C13.7919 12.7728 13.1811 12.125 13.0139 11.9739C12.8998 11.871 12.6185 11.7955 12.4658 11.8115H12.4642Z" fill="black"/>
<path d="M12.4642 11.8115C12.6185 11.7954 12.8982 11.871 13.0123 11.9738C13.1795 12.1249 13.7903 12.7711 13.8884 12.9463C14.0925 13.3064 14.0636 13.5716 13.9912 13.9606C13.7871 15.0569 13.4029 16.1725 13.1811 17.272C12.9673 17.9166 12.1427 17.9793 11.9112 17.3122L11.8967 12.3259C11.9466 12.043 12.178 11.8388 12.4625 11.8115H12.4642Z" fill="white"/>
</g>
<defs>
<clipPath id="clip0_2337_13130">
<rect width="17.5533" height="38" fill="white"/>
</clipPath>
</defs>
</svg>
