<svg width="71" height="71" viewBox="0 0 71 71" fill="none" xmlns="http://www.w3.org/2000/svg">
<path d="M11.0224 64.4214H59.1036C62.7349 64.4214 65.688 61.4683 65.688 57.837V44.712C65.688 42.3058 63.7411 40.337 61.313 40.337H8.81299C6.40674 40.337 4.43799 42.2839 4.43799 44.712V57.837C4.43799 61.4902 7.39111 64.4214 11.0224 64.4214Z" fill="#FFB02E"/>
<path d="M61.313 38.1715H8.81299C6.40674 38.1715 4.43799 40.1184 4.43799 42.5465V46.9215H65.6661V42.5465C65.6661 40.1403 63.7192 38.1715 61.313 38.1715Z" fill="#26EAFC"/>
<path d="M53.1098 16.1653L15.6379 53.6372C15.2004 54.0747 15.2004 54.7747 15.6379 55.2122C16.0754 55.6497 16.7754 55.6497 17.2129 55.2122L54.6848 17.7403C55.1223 17.3028 55.1223 16.6028 54.6848 16.1653C54.2473 15.7278 53.5473 15.7278 53.1098 16.1653Z" fill="#7D4533"/>
<path d="M49.9816 55.4746C51.6441 57.1371 54.2473 57.2684 55.4941 55.6496C64.0254 44.4934 63.1285 28.3934 52.8473 18.1121C42.566 7.83088 26.4223 6.91213 15.266 15.4434C13.6473 16.6684 13.7785 19.2715 15.441 20.934L17.1035 22.5965L41.5598 29.334L48.2973 53.7903L49.9816 55.4746Z" fill="#F8312F"/>
<path d="M48.2754 53.7903C59.3879 42.6778 61.4004 26.7091 52.7816 18.0903C44.1629 9.47156 28.216 11.4841 17.1035 22.5966L48.2754 53.7903Z" fill="#F4F4F4"/>
<path d="M40.4661 45.9591C51.5786 34.8466 57.0911 22.356 52.7817 18.0685C48.4724 13.781 36.0036 19.2935 24.8911 30.406L40.4661 45.9591Z" fill="#F8312F"/>
</svg>
