<svg width="71" height="71" viewBox="0 0 71 71" fill="none" xmlns="http://www.w3.org/2000/svg">
<path d="M59.6615 66.1394H11.6783C8.05451 66.1394 5.10742 63.1945 5.10742 59.5734V42.1226C5.10742 39.7231 7.05032 37.7599 9.47349 37.7599H61.8663C64.2677 37.7599 66.2324 39.7013 66.2324 42.1226V59.5734C66.2106 63.1945 63.2853 66.1394 59.6615 66.1394Z" fill="#608842"/>
<rect x="48.7812" y="33.0656" width="6.54709" height="9.04947" rx="0.604128" fill="#8C5543"/>
<path d="M58.5144 11.2053C58.3057 7.77 55.4535 5.04846 51.9657 5.04846C48.3802 5.04846 45.4665 7.9246 45.4057 11.4956C45.3691 11.758 45.3012 12.0013 45.0582 12.1189C42.0672 12.7297 39.817 15.3756 39.817 18.547C39.817 19.3728 39.9696 20.1629 40.248 20.8908C40.2515 20.9121 40.2585 20.9358 40.2697 20.9622C40.4019 21.2748 40.3143 21.6501 40.0979 21.915C38.7221 23.1177 37.853 24.8856 37.853 26.8565C37.853 30.4436 40.7317 33.3583 44.3049 33.4166L44.3797 33.4174C44.3911 33.4174 44.4025 33.4174 44.414 33.4174C44.4254 33.4174 44.4368 33.4174 44.4482 33.4174H59.763C59.7744 33.4174 59.7858 33.4174 59.7973 33.4174C59.8087 33.4174 59.8201 33.4174 59.8315 33.4174H59.8485C63.4484 33.3898 66.3582 30.4629 66.3582 26.8565C66.3582 24.8382 65.4468 23.0328 64.0132 21.8292C63.643 21.4439 63.7326 20.9259 63.8405 20.5498C63.8585 20.4937 63.8757 20.4373 63.8922 20.3805L63.9022 20.3491C63.9222 20.3091 63.9322 20.2696 63.9337 20.2312C64.076 19.6937 64.1518 19.1292 64.1518 18.547C64.1518 15.4489 62.0045 12.8524 59.1169 12.1645C58.7354 12.0395 58.5393 11.5047 58.5144 11.2053Z" fill="#96C34A"/>
<path d="M10.6765 54.0171C9.50807 56.9732 11.2255 57.452 12.5347 57.452H57.0592C58.6519 57.452 59.347 56.1565 58.5832 54.2089C58.1722 53.1608 51.6731 36.9551 48.6589 28.9916H21.6344C20.5554 28.9916 20.2985 29.7365 19.8618 30.7898C19.4251 31.843 11.8449 51.0609 10.6765 54.0171Z" fill="#F9C23C"/>
<path d="M29.2021 53.0142C28.2043 50.5984 24.1474 40.4978 22.2437 35.7495V57.4563H33.5346C31.0839 57.4563 30.4493 56.0339 29.2021 53.0142Z" fill="#433B6B"/>
<path d="M22.2663 35.7538C21.7318 34.4361 20.6311 31.7117 20.5041 31.356C20.4924 31.3235 20.4802 31.2897 20.4676 31.255C20.3082 30.8163 20.0918 30.2206 20.3289 29.7702V29.7611C20.1831 30.012 20.0585 30.3141 19.9193 30.6518C19.9004 30.6975 19.8813 30.7439 19.8618 30.7908C19.5173 31.6218 14.7264 43.7588 12.1457 50.2968C11.4553 52.0458 10.9231 53.3941 10.6765 54.0181C9.50806 56.9743 11.2255 57.453 12.5347 57.453H21.5695V38.0504L22.2663 35.7538Z" fill="#ED9200"/>
<path d="M22.2986 57.4488V35.7346C19.6883 42.9618 14.835 56.0196 14.6372 56.5449C14.4394 57.0702 14.1568 57.3664 14.0403 57.4488H22.2986Z" fill="#FF6723"/>
<path d="M36.4858 35.5897C34.6826 35.5897 34.1038 36.6327 34.6655 38.1698C34.8625 38.8497 35.4098 40.5674 35.9537 42.0336C36.6336 43.8663 37.6189 44.3355 39.2447 44.3355H42.9692C44.7723 44.3355 45.0285 43.0682 44.6442 42.0336C44.2599 40.999 43.5801 39.1367 43.048 37.7475C42.5159 36.3582 41.4813 35.5897 39.8556 35.5897H36.4858Z" fill="#FF822D"/>
</svg>
