<svg width="64" height="57" viewBox="0 0 64 57" fill="none" xmlns="http://www.w3.org/2000/svg">
<path d="M56.9248 56.9347H7.69866C3.98095 56.9347 0.95752 53.8455 0.95752 50.047V31.7406C0.95752 29.2235 2.95075 27.1641 5.43669 27.1641H59.1868C61.6503 27.1641 63.666 29.2006 63.666 31.7406V50.047C63.6436 53.8455 60.6425 56.9347 56.9248 56.9347Z" fill="#07C1FF"/>
<path d="M8.44096 11.8313C7.72773 13.0034 7.27655 13.0638 6.44692 12.7333C5.99569 12.618 5.58813 12.3876 4.55468 12.3876C2.1446 12.3876 0.0571289 14.4917 0.0571289 17.3322C0.0571289 20.1727 1.92017 22.1265 5.58813 22.1265H14.3359C17.9311 22.1265 20.4928 19.0327 20.4928 15.0928C20.4928 11.153 16.985 8.66028 13.8847 8.66028C10.7844 8.66028 9.1542 10.6592 8.44096 11.8313Z" fill="#C1E2FF"/>
<path d="M44.0078 5.36322H42.4675V1.34546C43.3147 1.34546 44.0078 1.94812 44.0078 2.68471V5.36322Z" fill="#FFCE7C"/>
<path d="M50.1687 1.34546H51.7089V7.3721L50.9388 8.04173L50.1687 7.3721V1.34546ZM50.1687 13.3987L50.9388 12.7291L51.7089 13.3987V20.095H50.1687V13.3987Z" fill="#FCD53F"/>
<path d="M46.3181 13.3988L47.4733 12.7291L48.6285 13.3988L45.8253 18.883C45.6558 19.2111 45.2785 19.4254 44.8626 19.4254C44.1002 19.4254 43.5919 18.7424 43.9 18.133L46.3181 13.3988ZM57.0998 16.0773H56.7063L55.2746 18.883C55.0436 19.3183 54.4506 19.5526 53.8884 19.3517C53.3416 19.1575 53.1183 18.575 53.357 18.1062L54.3964 16.0728C53.325 16.0074 52.4791 15.2308 52.4791 14.2827V13.3988L54.7894 12.7291L57.0998 13.3988V16.0773Z" fill="#D3883E"/>
<path d="M42.0824 4.0173C41.4432 4.0173 40.9272 3.56865 40.9272 3.01286C40.9272 2.45707 41.4432 2.00842 42.0824 2.00842C42.1279 2.00842 42.1728 2.0107 42.217 2.01513H45.3921C45.4434 2.01069 45.4954 2.00842 45.548 2.00842C46.4071 2.00842 47.1036 2.61402 47.1036 3.36106C47.1036 3.60087 47.0318 3.82611 46.9059 4.02142C46.9707 4.01428 47.0366 4.0106 47.1036 4.0106C47.9627 4.0106 48.6592 4.6162 48.6592 5.36325C48.6592 5.6017 48.5883 5.82574 48.4637 6.02027C48.5178 6.01532 48.5728 6.01278 48.6284 6.01278C49.4876 6.01278 50.1841 6.61838 50.1841 7.36543C50.1841 8.11247 49.4876 8.71807 48.6284 8.71807C47.7693 8.71807 47.0728 8.11247 47.0728 7.36543C47.0728 7.12698 47.1437 6.90294 47.2683 6.70841C47.2142 6.71336 47.1592 6.7159 47.1036 6.7159C46.2444 6.7159 45.5479 6.1103 45.5479 5.36325C45.5479 5.12344 45.6197 4.8982 45.7456 4.7029C45.6809 4.71003 45.6149 4.71371 45.548 4.71371C44.6888 4.71371 43.9923 4.10811 43.9923 3.36106C43.9923 3.14165 44.0524 2.93445 44.159 2.7512L44.0077 2.68475L42.9417 3.68497C42.7305 3.88915 42.424 4.0173 42.0824 4.0173ZM57.0997 8.71139C57.0997 7.97398 57.7851 7.37577 58.6322 7.37216V7.37214L58.6365 7.37214L58.6399 7.37214C58.6512 7.37214 58.6624 7.37224 58.6736 7.37245C59.9328 7.39159 60.9426 8.28147 60.9426 9.38102V11.5652C61.4072 11.7958 61.7204 12.2307 61.7204 12.7292C61.7204 13.4688 61.0308 14.0684 60.1801 14.0684C59.3295 14.0684 58.6399 13.4688 58.6399 12.7292H58.6322V11.3698H57.8698V9.87148C57.4094 9.63992 57.0997 9.20711 57.0997 8.71139Z" fill="#6D4534"/>
<path d="M46.1794 3.91687L43.2376 4.00392V7.37217V7.42572V9.58194C43.2376 10.2363 43.4266 10.8519 43.7597 11.3899H41.6974C40.6115 11.3899 39.8876 12.3609 40.3266 13.2247L41.8437 16.1978C42.067 16.6398 42.66 16.8742 43.2299 16.6666C43.7767 16.4724 44 15.8965 43.7613 15.4278L42.7242 13.3988H47.3962V13.3936C47.4727 13.3971 47.5498 13.3988 47.6273 13.3988H54.0115V14.2827C54.0115 15.2738 54.9357 16.0773 56.0754 16.0773H57.4206L56.3835 18.1063C56.1447 18.575 56.3681 19.1576 56.9149 19.3518C57.477 19.5527 58.07 19.3183 58.3011 18.8831L59.8182 15.9099C60.2317 15.0898 59.6132 14.1805 58.6322 14.078V13.3988L58.6093 13.3921H58.6399V11.1823C58.6399 9.07301 56.6761 7.36546 54.2503 7.36546H47.855L46.1794 3.91687Z" fill="#F3AD61"/>
<path d="M43.1915 7.36543C43.1915 7.77497 42.8526 8.03504 42.6401 8.38288C42.3777 8.57135 42.0412 8.68459 41.6744 8.68459C40.8365 8.68459 40.1572 8.09399 40.1572 7.36543C40.1572 7.16535 40.2085 6.97567 40.3001 6.80577C40.3304 6.74965 40.4528 6.51827 40.4653 6.49486C40.4865 6.51336 41.4059 6.04626 41.6744 6.04626C42.5122 6.04626 43.1915 6.63688 43.1915 7.36543Z" fill="#D3883E"/>
<path d="M44.0079 2.6848V1.33875C44.855 1.33875 45.5481 1.94141 45.5481 2.678V3.17202C46.0478 3.54415 46.3644 4.09676 46.3644 4.71367C46.3644 5.24052 46.1335 5.72046 45.7548 6.08115L45.7637 6.08639L45.6886 6.14175C45.5925 6.22601 45.4881 6.30299 45.3764 6.37164L42.6448 8.3832L40.4653 6.49486L41.9286 3.82974L41.9297 3.83038C42.3042 3.15796 43.0931 2.69251 44.0079 2.6848Z" fill="#FFCE7C"/>
<path d="M42.4676 5.68471C42.6717 5.68471 42.8372 5.5408 42.8372 5.36329C42.8372 5.18577 42.6717 5.04187 42.4676 5.04187C42.2634 5.04187 42.0979 5.18577 42.0979 5.36329C42.0979 5.5408 42.2634 5.68471 42.4676 5.68471Z" fill="#D3883E"/>
<path d="M53.1799 10.7203H48.6978C48.2358 10.7203 47.8584 10.3922 47.8584 9.99044V7.37219H54.0116V9.99044C54.0116 10.3922 53.642 10.7203 53.1799 10.7203Z" fill="#F8312F"/>
<path d="M34.2802 15.2773H26.1519C25.702 15.2773 25.402 14.7617 25.612 14.3267L29.6762 5.5935C29.9011 5.11011 30.531 5.11011 30.756 5.5935L34.8201 14.3267C35.0301 14.7617 34.7302 15.2773 34.2802 15.2773ZM24.7085 34.2342H11.6684C10.9404 34.2342 10.4657 33.5621 10.798 32.988L17.318 18.5938C17.682 17.9638 18.6949 17.9638 19.0588 18.5938L25.5789 32.988C25.9112 33.5621 25.4364 34.2342 24.7085 34.2342ZM35.6636 34.2342H48.7037C49.4316 34.2342 49.9064 33.5621 49.5741 32.988L43.054 18.5938C42.6901 17.9638 41.6772 17.9638 41.3132 18.5938L34.7932 32.988C34.4609 33.5621 34.9356 34.2342 35.6636 34.2342Z" fill="#FFE54A"/>
<path d="M35.2715 13.2875H34.601C34.1017 13.2875 33.6738 13.7205 33.688 14.2619C33.7023 14.8187 33.2886 15.2672 32.7751 15.2672H32.3471C31.8478 15.2672 31.4198 14.8342 31.4341 14.2928C31.4484 13.736 31.0347 13.2875 30.5211 13.2875H29.8506C29.3513 13.2875 28.9234 13.7205 28.9377 14.2619C28.9519 14.8187 28.5382 15.2672 28.0247 15.2672H27.5967C27.0974 15.2672 26.6694 14.8342 26.6837 14.2928C26.698 13.736 26.2843 13.2875 25.7707 13.2875H25.1002C24.601 13.2875 24.1873 13.736 24.1873 14.2774V15.2672V20.4177C24.1873 20.9591 24.4378 21.3439 24.9371 21.3439H25.687C24.9309 21.3439 24.1873 21.3439 24.1873 22.9552V40.6794H36.1845V22.9552C36.1849 21.3439 35.4412 21.3439 34.6852 21.3439H35.435C35.9343 21.3439 36.1845 20.9591 36.1845 20.4177V15.2672V14.2774C36.1988 13.7206 35.7851 13.2875 35.2715 13.2875Z" fill="#998EA4"/>
<path d="M51.182 32.9413V33.5692L51.167 50.3471H34.6213L30.1363 47.6121L25.6513 50.3471H9.19043V33.5692V32.9413V31.9765C9.19043 31.4404 9.65517 31.0116 10.1799 31.0116H10.8845C11.4092 31.0116 11.829 31.4404 11.829 31.9765C11.829 32.5125 12.2487 32.9413 12.7734 32.9413H13.2082C13.7329 32.9413 14.1527 32.5125 14.1527 31.9765C14.1527 31.4404 14.5724 31.0116 15.0971 31.0116H15.7868C16.3115 31.0116 16.7312 31.4404 16.7312 31.9765C16.7312 32.5125 17.151 32.9413 17.6757 32.9413H18.1255C18.6502 32.9413 19.0699 32.5125 19.0699 31.9765C19.0699 31.4404 19.4897 31.0116 20.0144 31.0116H20.0294H20.704H20.719C21.2437 31.0116 21.6635 31.4404 21.6635 31.9765C21.6635 32.5125 22.0832 32.9413 22.608 32.9413H23.0727C23.5974 32.9413 24.0172 32.5125 24.0172 31.9765C24.0172 31.4404 24.4369 31.0116 24.9616 31.0116H25.6513C26.176 31.0116 26.5957 31.4404 26.5957 31.9765C26.5957 32.5125 27.0155 32.9413 27.5402 32.9413H27.975C28.4997 32.9413 28.9194 32.5125 28.9194 31.9765C28.9194 31.4404 29.3392 31.0116 29.8639 31.0116H29.8789H30.5985H30.6135C31.1382 31.0116 31.558 31.4404 31.558 31.9765C31.558 32.5125 31.9777 32.9413 32.5024 32.9413H32.9372C33.4619 32.9413 33.8817 32.5125 33.8817 31.9765C33.8817 31.4404 34.3014 31.0116 34.8261 31.0116H35.5158C36.0405 31.0116 36.4602 31.4404 36.4602 31.9765C36.4602 32.5125 36.88 32.9413 37.4047 32.9413H37.8395C38.3642 32.9413 38.7839 32.5125 38.7839 31.9765C38.7839 31.4404 39.2037 31.0116 39.7284 31.0116H39.7434H40.418H40.433C40.9577 31.0116 41.3775 31.4404 41.3775 31.9765C41.3775 32.5125 41.7973 32.9413 42.322 32.9413H42.7567C43.2814 32.9413 43.7012 32.5125 43.7012 31.9765C43.7012 31.4404 44.121 31.0116 44.6457 31.0116H45.3353C45.86 31.0116 46.2798 31.4404 46.2798 31.9765C46.2798 32.5125 46.6995 32.9413 47.2242 32.9413H47.659C48.1837 32.9413 48.6035 32.5125 48.6035 31.9765C48.6035 31.4404 49.0232 31.0116 49.5479 31.0116H50.2376C50.7623 31.0116 51.182 31.4404 51.182 31.9765V32.9413Z" fill="#FFFCE7"/>
<path d="M28.6864 24.5665H31.6668H31.6858V22.9552C31.6858 22.0577 31.0024 21.3439 30.1861 21.3439C29.3508 21.3439 28.6864 22.0781 28.6864 22.9552V24.5665ZM25.687 50.3471H34.6713V45.1414C34.6713 42.2726 32.6756 40.6793 30.1861 40.6793C27.7106 40.6793 25.687 42.2565 25.687 45.1414V50.3471Z" fill="#5235A6"/>
<path d="M17.4387 13.7804V16.8165C17.4387 17.1625 17.7568 17.3985 18.0598 17.2884L21.5827 15.4878C21.7251 15.415 21.7253 15.1972 21.5829 15.1242L18.0447 13.3084C17.7417 13.2141 17.4387 13.45 17.4387 13.7804ZM41.4339 13.7804V16.8165C41.4339 17.1625 41.752 17.3985 42.055 17.2884L45.5779 15.4878C45.7203 15.415 45.7205 15.1972 45.5781 15.1242L42.0399 13.3084C41.7369 13.2141 41.4339 13.45 41.4339 13.7804Z" fill="#26C9FC"/>
</svg>
