<svg width="66" height="71" viewBox="0 0 66 71" fill="none" xmlns="http://www.w3.org/2000/svg">
<path d="M57.3187 70.5769H7.55607C3.79784 70.5769 0.741455 67.5832 0.741455 63.9021V46.1617C0.741455 43.7224 2.75641 41.7266 5.26945 41.7266H59.6054C62.0958 41.7266 64.1334 43.7002 64.1334 46.1617V63.9021C64.1107 67.5832 61.077 70.5769 57.3187 70.5769Z" fill="#985B16"/>
<path d="M54.0949 17.736H30.7063V40.6194H54.0949V17.736Z" fill="#212121"/>
<path d="M23.932 15.2315L41.3931 5.58585C42.0063 5.24238 42.7655 5.24238 43.3787 5.58585L60.8398 15.2315C61.3654 15.5321 61.161 16.3192 60.5478 16.3192H59.8908V18.2654C59.8908 18.7663 59.482 19.167 58.971 19.167H25.8299C25.3189 19.167 24.9101 18.7663 24.9101 18.2654V16.3192H24.224C23.6108 16.3192 23.4064 15.5178 23.932 15.2315ZM23.4355 43.4672H61.3069H61.3215V40.0755C61.3215 39.5746 60.9127 39.1739 60.4017 39.1739H24.3553C23.8443 39.1739 23.4355 39.5746 23.4355 40.0755V43.4672ZM36.0496 20.5551H40.4149V37.8716H36.0496V20.5551ZM27.7825 20.6124H32.1623V37.7858H27.7825V20.6124ZM48.6783 20.5551H44.3131V37.8716H48.6783V20.5551ZM52.5764 20.5551H56.9417V37.8716H52.5764V20.5551Z" fill="#9B9B9B"/>
<path d="M42.7509 4.95611L61.0296 15.1313C61.3654 15.303 61.4676 15.7038 61.2778 16.0186C61.161 16.219 60.9274 16.3334 60.6938 16.3334C60.577 16.3334 60.4456 16.3048 60.3434 16.2476L42.7217 6.44446C42.5173 6.32997 42.2545 6.32997 42.0501 6.44446L24.4284 16.2476C24.3116 16.3048 24.1948 16.3334 24.078 16.3334C23.8444 16.3334 23.6254 16.219 23.494 16.0186C23.3042 15.7038 23.421 15.3173 23.7422 15.1313L42.0209 4.95611C42.1377 4.89886 42.2691 4.87024 42.3859 4.87024C42.5173 4.87024 42.6341 4.89886 42.7509 4.95611ZM33.6261 19.167H26.3409V19.4389C26.3409 20.0829 26.8664 20.5981 27.5234 20.5981H32.4435C33.1005 20.5981 33.6261 20.0829 33.6261 19.4389V19.167ZM41.8749 19.167H34.5897V19.4389C34.5897 20.0829 35.1153 20.5981 35.7722 20.5981H40.6923C41.3493 20.5981 41.8749 20.0829 41.8749 19.4389V19.167ZM42.8677 19.167H50.1529V19.4389C50.1529 20.0829 49.6273 20.5981 48.9703 20.5981H44.0503C43.3933 20.5981 42.8677 20.0829 42.8677 19.4389V19.167ZM58.4163 19.167H51.1311V19.4389C51.1311 20.0829 51.6566 20.5981 52.3136 20.5981H57.2337C57.8907 20.5981 58.4163 20.0829 58.4163 19.4389V19.167ZM58.4017 39.1883H51.1164V38.9163C51.1164 38.2723 51.642 37.7571 52.299 37.7571H57.2191C57.8761 37.7571 58.4017 38.2723 58.4017 38.9163V39.1883ZM42.8677 39.1883H50.1529V38.9163C50.1529 38.2723 49.6273 37.7571 48.9703 37.7571H44.0503C43.3933 37.7571 42.8677 38.2723 42.8677 38.9163V39.1883ZM41.8749 39.1883H34.5897V38.9163C34.5897 38.2723 35.1153 37.7571 35.7722 37.7571H40.6923C41.3493 37.7571 41.8749 38.2723 41.8749 38.9163V39.1883ZM26.3263 39.1883H33.6116V38.9163C33.6116 38.2723 33.0859 37.7571 32.429 37.7571H27.5089C26.8519 37.7571 26.3263 38.2723 26.3263 38.9163V39.1883Z" fill="#D3D3D3"/>
<path d="M41.304 32.4633H9.60752V44.6641H41.304V32.4633ZM44.8258 46.6976H6.08569V62.9654H20.1514L25.4471 59.9977L30.7428 62.9654H44.8258V46.6976Z" fill="#FFFEF6"/>
<path d="M47.5207 30.2973C47.5207 30.8667 47.2724 31.3954 46.8646 31.7004L43.3185 34.405C42.5916 34.954 41.7405 35.259 40.854 35.259H10.056C9.18721 35.259 8.31842 34.954 7.59146 34.405L4.04536 31.7004C3.63755 31.3954 3.38933 30.8667 3.38933 30.2973C3.38933 29.3009 4.09855 28.5892 4.87869 28.5892C5.14465 28.5892 5.42835 28.6909 5.69431 28.8739C6.43899 29.4433 7.30779 29.728 8.15885 29.728C9.31134 29.728 10.4461 29.2196 11.2972 28.2435C11.9177 27.5318 12.7688 27.1251 13.6553 27.1251H37.2724C38.1589 27.1251 39.01 27.5318 39.6306 28.2435C40.4816 29.2196 41.6164 29.728 42.7689 29.728C43.6199 29.728 44.471 29.4433 45.2334 28.8739C45.4994 28.6705 45.7653 28.5892 46.049 28.5892C46.8114 28.5892 47.5207 29.3009 47.5207 30.2973ZM50.1685 46.5651C50.1685 47.1345 49.9214 47.6632 49.5154 47.9682L45.9849 50.6728C45.2611 51.2218 44.4138 51.5268 43.5312 51.5268H7.37882C6.51385 51.5268 5.64888 51.2218 4.92512 50.6728L1.39462 47.9682C0.988609 47.6632 0.741455 47.1345 0.741455 46.5651C0.741455 45.5687 1.44755 44.857 2.22426 44.857C2.48905 44.857 2.7715 44.9587 3.03629 45.1417C3.7777 45.7111 4.64267 45.9958 5.48999 45.9958C6.6374 45.9958 7.76717 45.4874 8.61449 44.5113C9.23233 43.7996 10.0797 43.3929 10.9623 43.3929H39.9654C40.848 43.3929 41.6953 43.7996 42.3132 44.5113C43.1605 45.4874 44.2903 45.9958 45.4377 45.9958C46.285 45.9958 47.1323 45.7111 47.8914 45.1417C48.1562 44.9384 48.4209 44.857 48.7034 44.857C49.4448 44.857 50.1685 45.5687 50.1685 46.5651Z" fill="#0D0097"/>
<path d="M15.7657 40.2645H13.7352C13.3077 40.2645 12.9693 39.8856 12.9693 39.4069V37.1333C12.9693 36.6547 13.3077 36.2758 13.7352 36.2758H15.7657C16.1932 36.2758 16.5316 36.6547 16.5316 37.1333V39.4069C16.5494 39.8856 16.1932 40.2645 15.7657 40.2645ZM10.7607 58.2138H15.2136C15.9438 58.2138 16.5494 57.5557 16.5494 56.7181V53.7265C16.5494 52.9088 15.9438 52.2307 15.2136 52.2307H10.7607C10.0304 52.2307 9.4248 52.9088 9.4248 53.7265V56.7181C9.4248 57.5357 10.0304 58.2138 10.7607 58.2138ZM20.0939 62.2026H30.7808V54.245C30.7808 53.1282 29.9793 52.2307 28.9819 52.2307H21.8929C20.8954 52.2307 20.0939 53.1282 20.0939 54.245V62.2026ZM24.4221 40.2645H26.4527C26.8801 40.2645 27.2363 39.8856 27.2185 39.4069V37.1333C27.2185 36.6547 26.8801 36.2758 26.4527 36.2758H24.4221C23.9947 36.2758 23.6562 36.6547 23.6562 37.1333V39.4069C23.6562 39.8856 23.9947 40.2645 24.4221 40.2645ZM37.1396 40.2645H35.1091C34.6816 40.2645 34.3432 39.8856 34.3432 39.4069V37.1333C34.3432 36.6547 34.6816 36.2758 35.1091 36.2758H37.1396C37.5671 36.2758 37.9055 36.6547 37.9055 37.1333V39.4069C37.9233 39.8856 37.5671 40.2645 37.1396 40.2645ZM35.6969 58.2138H40.1497C40.88 58.2138 41.4856 57.5557 41.4856 56.7181V53.7265C41.4856 52.9088 40.88 52.2307 40.1497 52.2307H35.6969C34.9666 52.2307 34.361 52.9088 34.361 53.7265V56.7181C34.361 57.5357 34.9666 58.2138 35.6969 58.2138Z" fill="#7A5146"/>
</svg>
