<svg width="36" height="36" viewBox="0 0 36 36" fill="none" xmlns="http://www.w3.org/2000/svg">
<circle cx="18.4058" cy="17.8119" r="17.5" fill="#292929"/>
<path d="M15.9512 25.3549H9.40576V15.964C9.40568 15.8612 9.42677 15.7594 9.46783 15.6644C9.50889 15.5694 9.56912 15.483 9.64508 15.4103L17.8269 7.58447C17.9029 7.51171 17.9931 7.45399 18.0924 7.4146C18.1918 7.37522 18.2982 7.35495 18.4058 7.35495C18.5133 7.35495 18.6198 7.37522 18.7191 7.4146C18.8184 7.45399 18.9086 7.51171 18.9846 7.58447L27.1664 15.4103C27.2424 15.483 27.3026 15.5694 27.3437 15.6644C27.3848 15.7594 27.4058 15.8612 27.4058 15.964V25.3549H20.8603M15.9512 25.3549H20.8603M15.9512 25.3549L15.9512 19.0943H20.8603L20.8603 25.3549" stroke="white" stroke-width="2" stroke-linecap="round" stroke-linejoin="round"/>
</svg>
