<svg width="32" height="38" viewBox="0 0 32 38" fill="none" xmlns="http://www.w3.org/2000/svg">
<g id="Property 1=&#236;&#167;&#128;&#236;&#178;&#180;&#236;&#158;&#165;&#236;&#149;&#160;" clip-path="url(#clip0_2337_13061)">
<path id="Vector" d="M0.00356497 17.9595C0.0234697 17.7931 0.121184 17.509 0.200803 17.3551C1.53261 15.609 2.69795 13.6366 4.04785 11.9157C4.61061 11.1973 5.08833 10.8445 5.94061 10.5097C8.62233 9.44934 11.6099 8.66762 14.3549 7.76648C15.9039 7.62896 17.4076 8.36905 17.3732 10.0881L15.7211 17.8292L23.5473 19.7075C25.0202 20.1255 25.6083 21.7487 26.343 22.9448C28.0023 25.6482 29.7015 28.3281 31.3626 31.0297C31.4314 31.1727 31.5526 31.4767 31.5725 31.6232V32.2312C31.2595 34.1005 28.927 34.4244 27.7526 33.1631L22.5285 24.738L12.4748 22.8742C10.8734 22.4616 8.85033 21.5605 8.72909 19.6731L10.1659 12.3645L6.83452 13.4611C5.48461 15.2235 4.32109 17.2357 2.94947 18.9711C2.42652 19.6315 1.65566 19.8975 0.855851 19.5157C0.32747 19.2642 0.103089 18.7666 0.00356497 18.2201C0.0108031 18.1351 -0.00729217 18.0428 0.00356497 17.9595Z" fill="black"/>
<path id="Vector_2" d="M16.4612 0C21.4754 0.477714 20.3861 7.91486 15.3321 6.61562C11.5972 5.65657 12.0876 0.325714 16.0269 0H16.4612Z" fill="black"/>
<path id="Vector_3" d="M8.03605 16.0939L7.20005 20.0531C4.62328 22.2282 4.02252 26.6706 5.33624 29.6581C7.33938 34.2163 12.9453 35.8358 17.4148 34.0317C20.1816 32.9152 22.2625 30.6262 23.2994 27.8522L24.908 30.3656C24.9623 30.5375 24.7922 30.8705 24.718 31.0478C22.4688 36.3153 15.8731 38.9699 10.45 37.5657C0.524712 34.9908 -1.81862 22.1413 6.93766 16.6657C7.06795 16.5843 7.97814 16.0414 8.03605 16.0939Z" fill="black"/>
</g>
<defs>
<clipPath id="clip0_2337_13061">
<rect width="31.5726" height="38" fill="white"/>
</clipPath>
</defs>
</svg>
